<?xml version="1.0" standalone="no"?>
<!DOCTYPE svg PUBLIC "-//W3C//DTD SVG 20010904//EN"
 "http://www.w3.org/TR/2001/REC-SVG-20010904/DTD/svg10.dtd">
<svg version="1.0" xmlns="http://www.w3.org/2000/svg"
 width="785.000000pt" height="785.000000pt" viewBox="0 0 785.000000 785.000000"
 preserveAspectRatio="xMidYMid meet">
<metadata>
Created by potrace 1.11, written by Peter Selinger 2001-2013
</metadata>
<g transform="translate(0.000000,785.000000) scale(0.100000,-0.100000)"
fill="#000000" stroke="none">
<path d="M2399 5531 c0 -9 -1 -152 -1 -318 -1 -213 -4 -303 -12 -304 -6 -1
-69 -2 -141 -3 l-130 -1 0 -172 -1 -173 46 0 c25 -1 88 -1 141 -2 l96 -1 1
-981 c0 -540 1 -991 1 -1003 l1 -23 220 0 220 0 0 1004 0 1004 128 1 c70 0
134 0 143 0 13 1 15 24 15 174 l-1 172 -140 0 -140 0 -3 321 -2 321 -220 0
c-196 0 -220 -1 -221 -16z"/>
<path d="M4143 4939 c-151 -20 -278 -85 -394 -200 -61 -59 -85 -93 -117 -160
-38 -79 -74 -191 -87 -269 -3 -19 -8 -42 -10 -50 -4 -13 -10 -54 -20 -140 -18
-139 -23 -450 -12 -630 42 -649 286 -966 747 -968 217 -1 367 61 518 217 125
129 205 371 228 691 13 177 7 577 -11 690 -2 14 -6 47 -10 74 -18 141 -57 279
-112 394 -74 154 -259 303 -417 337 -12 2 -32 6 -46 10 -42 9 -202 12 -257 4z
m205 -379 c51 -23 73 -47 107 -116 27 -57 41 -110 50 -199 4 -33 8 -71 11 -85
16 -93 23 -642 11 -830 -20 -327 -94 -451 -267 -451 -160 -1 -242 119 -264
386 -20 235 -27 711 -14 890 8 108 32 230 57 288 22 51 78 107 123 123 52 19
137 16 186 -6z"/>
<path d="M5497 3068 c-51 -11 -87 -31 -124 -68 -100 -103 -104 -265 -9 -378
97 -114 285 -123 387 -17 62 63 84 117 83 205 0 85 -20 134 -76 190 -59 60
-169 88 -261 68z"/>
</g>
</svg>
